<svg width="117" height="117" viewBox="0 0 117 117" fill="none" xmlns="http://www.w3.org/2000/svg">
<circle cx="58.5" cy="58.5" r="58.5" fill="#4D4E63"/>
<path d="M35.6023 40.0909H43.8693L49.3409 55.125H49.7159L60.1307 40.0909H68.3977L51.9318 62.6591L49.8693 75H42.5398L44.6023 62.6591L35.6023 40.0909ZM84.7656 40.0909H92.0611L88.0384 64.483C87.652 66.7443 86.8338 68.6989 85.5838 70.3466C84.3338 71.983 82.7486 73.25 80.8281 74.1477C78.9077 75.0341 76.7656 75.4773 74.402 75.4773C72.277 75.4773 70.4134 75.1023 68.8111 74.3523C67.2202 73.6023 66.044 72.4659 65.2827 70.9432C64.5327 69.4205 64.3452 67.5 64.7202 65.1818H72.0156C71.902 66.125 71.9588 66.9205 72.1861 67.5682C72.4247 68.2159 72.8281 68.7102 73.3963 69.0511C73.9645 69.392 74.6747 69.5625 75.527 69.5625C76.4474 69.5625 77.2656 69.3636 77.9815 68.9659C78.6974 68.5682 79.2884 67.983 79.7543 67.2102C80.2315 66.4375 80.5668 65.4943 80.7599 64.3807L84.7656 40.0909Z" fill="white"/>
</svg>
